<?xml version="1.0" encoding="UTF-8"?>
<!DOCTYPE svg PUBLIC "-//W3C//DTD SVG 1.1//EN"
    "http://www.w3.org/Graphics/SVG/1.1/DTD/svg11.dtd"><svg xmlns="http://www.w3.org/2000/svg" height="400.0000" stroke-opacity="1" viewBox="0 0 400 400" font-size="1" width="400.0000" xmlns:xlink="http://www.w3.org/1999/xlink" stroke="rgb(0,0,0)" version="1.1"><defs></defs><g stroke-linejoin="miter" stroke-opacity="1.0" fill-opacity="1.0" stroke="rgb(0,0,0)" stroke-width="4.0" fill="rgb(255,255,255)" stroke-linecap="butt" stroke-miterlimit="10.0"><path d="M 287.9121,312.0879 v -224.1758 c 0.0000,-16.9934 -13.7759,-30.7692 -30.7692 -30.7692h -114.2857 c -16.9934,-0.0000 -30.7692,13.7759 -30.7692 30.7692v 224.1758 c -0.0000,16.9934 13.7759,30.7692 30.7692 30.7692h 114.2857 c 16.9934,0.0000 30.7692,-13.7759 30.7692 -30.7692Z"/></g><g stroke-linejoin="miter" stroke-opacity="1.0" fill-opacity="1.0" stroke="rgb(5,224,0)" stroke-width="5.0" fill="rgb(255,255,255)" stroke-linecap="butt" stroke-miterlimit="10.0"><path d="M 200.0000,204.3956 c -0.1897,0.0039 -0.3790,0.0161 -0.5681 0.0365c -0.1891,0.0281 -0.3779,0.0644 -0.5664 0.1088c -0.1885,0.0520 -0.3767,0.1119 -0.5646 0.1798c -0.1879,0.0753 -0.3755,0.1583 -0.5628 0.2490c -0.1873,0.0979 -0.3743,0.2032 -0.5610 0.3160c -0.1867,0.1197 -0.3730,0.2465 -0.5591 0.3804c -0.1860,0.1405 -0.3717,0.2878 -0.5571 0.4417c -0.1854,0.1602 -0.3704,0.3269 -0.5551 0.4998c -0.1847,0.1788 -0.3691,0.3636 -0.5531 0.5542c -0.1840,0.1961 -0.3677,0.3978 -0.5510 0.6048c -0.1833,0.2120 -0.3663,0.4291 -0.5489 0.6511c -0.1826,0.2266 -0.3649,0.4577 -0.5468 0.6931c -0.1819,0.2396 -0.3634,0.4832 -0.5446 0.7306c -0.1811,0.2510 -0.3619,0.5055 -0.5423 0.7634c -0.1804,0.2609 -0.3604,0.5248 -0.5400 0.7914c -0.1796,0.2692 -0.3589,0.5408 -0.5377 0.8146c -0.3577,0.5536 -0.7138,1.1138 -1.0682 1.6792c -0.3545,0.5695 -0.7073,1.1412 -1.0584 1.7138c -0.3511,0.5726 -0.7005,1.1434 -1.0482 1.7110c -0.3477,0.5637 -0.6936,1.1216 -1.0377 1.6726c -0.3441,0.5435 -0.6864,1.0778 -1.0268 1.6017c -0.1702,0.2580 -0.3399,0.5131 -0.5092 0.7651c -0.1693,0.2489 -0.3381,0.4946 -0.5064 0.7368c -0.1683,0.2388 -0.3361,0.4740 -0.5035 0.7055c -0.1673,0.2278 -0.3342,0.4516 -0.5005 0.6715c -0.1664,0.2159 -0.3322,0.4276 -0.4976 0.6351c -0.1654,0.2033 -0.3302,0.4021 -0.4945 0.5966c -0.1643,0.1900 -0.3282,0.3754 -0.4915 0.5562c -0.1633,0.1762 -0.3261,0.3476 -0.4884 0.5144c -0.1623,0.1619 -0.3240,0.3190 -0.4852 0.4712c -0.1612,0.1473 -0.3219,0.2897 -0.4820 0.4272c -0.1601,0.1324 -0.3197,0.2599 -0.4788 0.3825c -0.1591,0.1174 -0.3176,0.2299 -0.4755 0.3374c -0.1580,0.1023 -0.3153,0.1997 -0.4722 0.2922c -0.1568,0.0873 -0.3131,0.1696 -0.4688 0.2471c -0.1557,0.0723 -0.3108,0.1398 -0.4654 0.2025c -0.1546,0.0576 -0.3086,0.1104 -0.4620 0.1585c -0.1534,0.0431 -0.3062,0.0815 -0.4585 0.1154c -0.1522,0.0289 -0.3039,0.0533 -0.4549 0.0734c -0.1510,0.0151 -0.3015,0.0260 -0.4513 0.0326c -0.1498,0.0018 -0.2991,-0.0004 -0.4477 -0.0067c -0.1486,-0.0109 -0.2966,-0.0258 -0.4440 -0.0444c -0.1474,-0.0231 -0.2942,-0.0500 -0.4403 -0.0804c -0.1462,-0.0347 -0.2917,-0.0729 -0.4366 -0.1145c -0.1449,-0.0457 -0.2892,-0.0946 -0.4328 -0.1466c -0.1436,-0.0559 -0.2866,-0.1148 -0.4289 -0.1766c -0.1423,-0.0655 -0.2840,-0.1337 -0.4251 -0.2045c -0.1410,-0.0743 -0.2814,-0.1510 -0.4211 -0.2301c -0.1397,-0.0824 -0.2788,-0.1669 -0.4172 -0.2535c -0.1384,-0.0897 -0.2761,-0.1812 -0.4131 -0.2746c -0.1370,-0.0962 -0.2734,-0.1940 -0.4091 -0.2933c -0.1357,-0.1019 -0.2707,-0.2052 -0.4050 -0.3098c -0.1343,-0.1069 -0.2679,-0.2150 -0.4008 -0.3240c -0.2658,-0.2244 -0.5289,-0.4518 -0.7891 -0.6814c -0.2602,-0.2364 -0.5176,-0.4738 -0.7720 -0.7114c -0.2544,-0.2427 -0.5060,-0.4845 -0.7546 -0.7247c -0.4972,-0.4905 -0.9825,-0.9680 -1.4554 -1.4281c -0.4730,-0.4630 -0.9337,-0.9018 -1.3816 -1.3130c -0.4479,-0.4053 -0.8830,-0.7781 -1.3049 -1.1164c -0.2109,-0.1647 -0.4186,-0.3203 -0.6229 -0.4665c -0.2043,-0.1426 -0.4052,-0.2756 -0.6027 -0.3989c -0.1975,-0.1193 -0.3915,-0.2288 -0.5821 -0.3285c -0.1906,-0.0954 -0.3777,-0.1809 -0.5612 -0.2565c -0.1836,-0.0712 -0.3636,-0.1326 -0.5400 -0.1844c -0.1764,-0.0472 -0.3492,-0.0848 -0.5184 -0.1130c -0.1692,-0.0237 -0.3347,-0.0381 -0.4965 -0.0435c -0.1618,-0.0010 -0.3199,0.0069 -0.4742 0.0234c -0.1543,0.0207 -0.3049,0.0498 -0.4516 0.0870c -0.1467,0.0412 -0.2896,0.0902 -0.4287 0.1467c -0.1390,0.0603 -0.2742,0.1278 -0.4053 0.2023c -0.1312,0.0779 -0.2584,0.1624 -0.3817 0.2533c -0.1233,0.0939 -0.2425,0.1939 -0.3577 0.2997c -0.1152,0.1084 -0.2263,0.2223 -0.3334 0.3413c -0.2141,0.2451 -0.4116,0.5088 -0.5923 0.7888c -0.1807,0.2870 -0.3444,0.5879 -0.4908 0.9009c -0.1464,0.3176 -0.2754,0.6450 -0.3866 0.9808c -0.1112,0.3384 -0.2045,0.6835 -0.2795 1.0338c -0.1501,0.7044 -0.2269,1.4234 -0.2269 2.1517c -0.0000,0.7283 0.0769,1.4486 0.2269 2.1628c 0.0750,0.3589 0.1684,0.7180 0.2795 1.0780c 0.1112,0.3627 0.2402,0.7280 0.3866 1.0972c 0.1464,0.3738 0.3101,0.7535 0.4908 1.1407c 0.1807,0.3941 0.3783,0.7981 0.5923 1.2136c 0.1070,0.2113 0.2182,0.4261 0.3334 0.6444c 0.1152,0.2211 0.2344,0.4461 0.3577 0.6753c 0.1233,0.2322 0.2505,0.4690 0.3817 0.7106c 0.1312,0.2449 0.2663,0.4949 0.4053 0.7502c 0.1390,0.2589 0.2819,0.5235 0.4287 0.7939c 0.1467,0.2743 0.2973,0.5548 0.4516 0.8416c 0.1543,0.2909 0.3124,0.5885 0.4742 0.8927c 0.1618,0.3086 0.3273,0.6242 0.4965 0.9469c 0.1692,0.3271 0.3420,0.6615 0.5184 1.0033c 0.1764,0.3463 0.3564,0.7000 0.5400 1.0612c 0.1836,0.3657 0.3706,0.7389 0.5612 1.1196c 0.1906,0.3850 0.3846,0.7776 0.5821 1.1775c 0.1975,0.4039 0.3984,0.8152 0.6027 1.2335c 0.2043,0.4219 0.4119,0.8508 0.6229 1.2863c 0.4219,0.8799 0.8570,1.7842 1.3049 2.7105c 0.4479,0.9322 0.9086,1.8814 1.3816 2.8441c 0.4730,0.9597 0.9583,1.9259 1.4554 2.8936c 0.2486,0.4788 0.5001,0.9564 0.7546 1.4320c 0.2544,0.4705 0.5118,0.9379 0.7720 1.4014c 0.2602,0.4566 0.5233,0.9081 0.7891 1.3536c 0.1329,0.2196 0.2665,0.4374 0.4008 0.6533c 0.1343,0.2136 0.2693,0.4251 0.4050 0.6346c 0.1357,0.2068 0.2720,0.4114 0.4091 0.6135c 0.1370,0.1993 0.2748,0.3960 0.4131 0.5901c 0.1384,0.1910 0.2774,0.3791 0.4172 0.5643c 0.1397,0.1819 0.2801,0.3607 0.4211 0.5362c 0.1410,0.1720 0.2827,0.3407 0.4251 0.5058c 0.1423,0.1614 0.2853,0.3192 0.4289 0.4732c 0.1436,0.1501 0.2879,0.2962 0.4328 0.4383c 0.1449,0.1380 0.2904,0.2718 0.4366 0.4013c 0.1462,0.1252 0.2929,0.2460 0.4403 0.3623c 0.1474,0.1118 0.2954,0.2190 0.4440 0.3214c 0.1486,0.0978 0.2979,0.1907 0.4477 0.2786c 0.1498,0.0832 0.3003,0.1613 0.4513 0.2343c 0.1510,0.0681 0.3027,0.1309 0.4549 0.1884c 0.1522,0.0525 0.3051,0.0996 0.4585 0.1412c 0.1534,0.0365 0.3074,0.0675 0.4620 0.0929c 0.1546,0.0203 0.3097,0.0348 0.4654 0.0437c 0.1557,0.0037 0.3120,0.0017 0.4688 -0.0062c 0.1568,-0.0130 0.3142,-0.0318 0.4722 -0.0565c 0.1580,-0.0298 0.3165,-0.0655 0.4755 -0.1071c 0.1591,-0.0467 0.3186,-0.0992 0.4788 -0.1575c 0.1601,-0.0634 0.3208,-0.1326 0.4820 -0.2077c 0.1612,-0.0800 0.3230,-0.1657 0.4852 -0.2572c 0.1623,-0.0963 0.3251,-0.1983 0.4884 -0.3058c 0.1633,-0.1122 0.3271,-0.2300 0.4915 -0.3533c 0.1643,-0.1277 0.3292,-0.2608 0.4945 -0.3992c 0.1654,-0.1426 0.3312,-0.2905 0.4976 -0.4434c 0.1664,-0.1569 0.3332,-0.3187 0.5005 -0.4854c 0.1673,-0.1704 0.3352,-0.3455 0.5035 -0.5251c 0.1683,-0.1831 0.3371,-0.3705 0.5064 -0.5622c 0.1693,-0.1948 0.3390,-0.3935 0.5092 -0.5963c 0.3404,-0.4134 0.6827,-0.8410 1.0268 -1.2817c 0.3441,-0.4482 0.6900,-0.9074 1.0377 -1.3763c 0.3477,-0.4728 0.6971,-0.9528 1.0482 -1.4387c 0.3511,-0.4859 0.7039,-0.9750 1.0584 -1.4659c 0.3545,-0.4868 0.7106,-0.9726 1.0682 -1.4560c 0.1788,-0.2386 0.3581,-0.4761 0.5377 -0.7123c 0.1796,-0.2336 0.3596,-0.4654 0.5400 -0.6954c 0.1804,-0.2269 0.3612,-0.4515 0.5423 -0.6737c 0.1811,-0.2186 0.3627,-0.4344 0.5446 -0.6473c 0.1819,-0.2088 0.3641,-0.4143 0.5468 -0.6163c 0.1826,-0.1974 0.3656,-0.3911 0.5489 -0.5808c 0.1833,-0.1846 0.3670,-0.3650 0.5510 -0.5409c 0.1840,-0.1704 0.3684,-0.3361 0.5531 -0.4969c 0.1847,-0.1549 0.3698,-0.3047 0.5551 -0.4491c 0.1854,-0.1382 0.3711,-0.2708 0.5571 -0.3976c 0.1860,-0.1203 0.3724,-0.2346 0.5591 -0.3429c 0.1867,-0.1014 0.3737,-0.1965 0.5610 -0.2853c 0.1873,-0.0816 0.3749,-0.1566 0.5628 -0.2250c 0.1879,-0.0610 0.3761,-0.1153 0.5646 -0.1626c 0.1885,-0.0398 0.3773,-0.0727 0.5664 -0.0985c 0.1891,-0.0181 0.3785,-0.0292 0.5681 -0.0330c 0.1897,0.0039 0.3790,0.0149 0.5681 0.0330c 0.1891,0.0258 0.3779,0.0587 0.5664 0.0985c 0.1885,0.0474 0.3767,0.1016 0.5646 0.1626c 0.1879,0.0684 0.3755,0.1434 0.5628 0.2250c 0.1873,0.0888 0.3743,0.1839 0.5610 0.2853c 0.1867,0.1083 0.3730,0.2226 0.5591 0.3429c 0.1860,0.1269 0.3717,0.2595 0.5571 0.3976c 0.1854,0.1444 0.3704,0.2942 0.5551 0.4491c 0.1847,0.1608 0.3691,0.3265 0.5531 0.4969c 0.1840,0.1759 0.3677,0.3563 0.5510 0.5409c 0.1833,0.1897 0.3663,0.3833 0.5489 0.5808c 0.1826,0.2020 0.3649,0.4075 0.5468 0.6163c 0.1819,0.2129 0.3634,0.4287 0.5446 0.6473c 0.1811,0.2222 0.3619,0.4469 0.5423 0.6737c 0.1804,0.2300 0.3604,0.4618 0.5400 0.6954c 0.1796,0.2362 0.3589,0.4736 0.5377 0.7123c 0.3577,0.4833 0.7138,0.9691 1.0682 1.4560c 0.3545,0.4909 0.7073,0.9800 1.0584 1.4659c 0.3511,0.4859 0.7005,0.9659 1.0482 1.4387c 0.3477,0.4689 0.6936,0.9281 1.0377 1.3763c 0.3441,0.4408 0.6864,0.8684 1.0268 1.2817c 0.1702,0.2027 0.3399,0.4015 0.5092 0.5963c 0.1693,0.1917 0.3381,0.3791 0.5064 0.5622c 0.1683,0.1797 0.3361,0.3547 0.5035 0.5251c 0.1673,0.1667 0.3342,0.3285 0.5005 0.4854c 0.1664,0.1529 0.3322,0.3007 0.4976 0.4434c 0.1654,0.1384 0.3302,0.2715 0.4945 0.3992c 0.1643,0.1233 0.3282,0.2410 0.4915 0.3533c 0.1633,0.1076 0.3261,0.2095 0.4884 0.3058c 0.1623,0.0915 0.3240,0.1772 0.4852 0.2572c 0.1612,0.0750 0.3219,0.1443 0.4820 0.2077c 0.1601,0.0584 0.3197,0.1109 0.4788 0.1575c 0.1591,0.0415 0.3176,0.0772 0.4755 0.1071c 0.1580,0.0247 0.3153,0.0435 0.4722 0.0565c 0.1568,0.0078 0.3131,0.0099 0.4688 0.0062c 0.1557,-0.0089 0.3108,-0.0235 0.4654 -0.0437c 0.1546,-0.0254 0.3086,-0.0564 0.4620 -0.0929c 0.1534,-0.0416 0.3062,-0.0887 0.4585 -0.1412c 0.1522,-0.0575 0.3039,-0.1203 0.4549 -0.1884c 0.1510,-0.0730 0.3015,-0.1511 0.4513 -0.2343c 0.1498,-0.0879 0.2991,-0.1809 0.4477 -0.2786c 0.1486,-0.1024 0.2966,-0.2096 0.4440 -0.3214c 0.1474,-0.1163 0.2942,-0.2371 0.4403 -0.3623c 0.1462,-0.1295 0.2917,-0.2633 0.4366 -0.4013c 0.1449,-0.1421 0.2892,-0.2882 0.4328 -0.4383c 0.1436,-0.1540 0.2866,-0.3117 0.4289 -0.4732c 0.1423,-0.1651 0.2840,-0.3338 0.4251 -0.5058c 0.1410,-0.1755 0.2814,-0.3543 0.4211 -0.5362c 0.1397,-0.1852 0.2788,-0.3733 0.4172 -0.5643c 0.1384,-0.1941 0.2761,-0.3908 0.4131 -0.5901c 0.1370,-0.2021 0.2734,-0.4067 0.4091 -0.6135c 0.1357,-0.2094 0.2707,-0.4210 0.4050 -0.6346c 0.1343,-0.2160 0.2679,-0.4338 0.4008 -0.6533c 0.2658,-0.4455 0.5289,-0.8970 0.7891 -1.3536c 0.2602,-0.4635 0.5176,-0.9309 0.7720 -1.4014c 0.2544,-0.4756 0.5060,-0.9532 0.7546 -1.4320c 0.4972,-0.9677 0.9825,-1.9340 1.4554 -2.8936c 0.4730,-0.9626 0.9337,-1.9119 1.3816 -2.8441c 0.4479,-0.9263 0.8830,-1.8307 1.3049 -2.7105c 0.2109,-0.4355 0.4186,-0.8644 0.6229 -1.2863c 0.2043,-0.4183 0.4052,-0.8296 0.6027 -1.2335c 0.1975,-0.3999 0.3915,-0.7924 0.5821 -1.1775c 0.1906,-0.3807 0.3777,-0.7540 0.5612 -1.1196c 0.1836,-0.3612 0.3636,-0.7149 0.5400 -1.0612c 0.1764,-0.3417 0.3492,-0.6761 0.5184 -1.0033c 0.1692,-0.3227 0.3347,-0.6382 0.4965 -0.9469c 0.1618,-0.3043 0.3199,-0.6018 0.4742 -0.8927c 0.1543,-0.2868 0.3049,-0.5672 0.4516 -0.8416c 0.1467,-0.2704 0.2896,-0.5350 0.4287 -0.7939c 0.1390,-0.2553 0.2742,-0.5053 0.4053 -0.7502c 0.1312,-0.2415 0.2584,-0.4783 0.3817 -0.7106c 0.1233,-0.2292 0.2425,-0.4542 0.3577 -0.6753c 0.1152,-0.2184 0.2263,-0.4331 0.3334 -0.6444c 0.2141,-0.4156 0.4116,-0.8195 0.5923 -1.2136c 0.1807,-0.3872 0.3444,-0.7669 0.4908 -1.1407c 0.1464,-0.3692 0.2754,-0.7345 0.3866 -1.0972c 0.1112,-0.3600 0.2045,-0.7191 0.2795 -1.0780c 0.1501,-0.7142 0.2269,-1.4345 0.2269 -2.1628c 0.0000,-0.7283 -0.0769,-1.4473 -0.2269 -2.1517c -0.0750,-0.3504 -0.1684,-0.6954 -0.2795 -1.0338c -0.1112,-0.3358 -0.2402,-0.6632 -0.3866 -0.9808c -0.1464,-0.3130 -0.3101,-0.6139 -0.4908 -0.9009c -0.1807,-0.2801 -0.3783,-0.5437 -0.5923 -0.7888c -0.1070,-0.1190 -0.2182,-0.2329 -0.3334 -0.3413c -0.1152,-0.1057 -0.2344,-0.2057 -0.3577 -0.2997c -0.1233,-0.0909 -0.2505,-0.1754 -0.3817 -0.2533c -0.1312,-0.0745 -0.2663,-0.1420 -0.4053 -0.2023c -0.1390,-0.0566 -0.2819,-0.1056 -0.4287 -0.1467c -0.1467,-0.0372 -0.2973,-0.0663 -0.4516 -0.0870c -0.1543,-0.0165 -0.3124,-0.0244 -0.4742 -0.0234c -0.1618,0.0054 -0.3273,0.0198 -0.4965 0.0435c -0.1692,0.0282 -0.3420,0.0658 -0.5184 0.1130c -0.1764,0.0517 -0.3564,0.1131 -0.5400 0.1844c -0.1836,0.0757 -0.3706,0.1612 -0.5612 0.2565c -0.1906,0.0997 -0.3846,0.2092 -0.5821 0.3285c -0.1975,0.1233 -0.3984,0.2563 -0.6027 0.3989c -0.2043,0.1462 -0.4119,0.3017 -0.6229 0.4665c -0.4219,0.3383 -0.8570,0.7112 -1.3049 1.1164c -0.4479,0.4111 -0.9086,0.8499 -1.3816 1.3130c -0.4730,0.4601 -0.9583,0.9376 -1.4554 1.4281c -0.2486,0.2401 -0.5001,0.4819 -0.7546 0.7247c -0.2544,0.2376 -0.5118,0.4750 -0.7720 0.7114c -0.2602,0.2296 -0.5233,0.4570 -0.7891 0.6814c -0.1329,0.1090 -0.2665,0.2170 -0.4008 0.3240c -0.1343,0.1046 -0.2693,0.2079 -0.4050 0.3098c -0.1357,0.0993 -0.2720,0.1972 -0.4091 0.2933c -0.1370,0.0934 -0.2748,0.1849 -0.4131 0.2746c -0.1384,0.0866 -0.2774,0.1711 -0.4172 0.2535c -0.1397,0.0791 -0.2801,0.1558 -0.4211 0.2301c -0.1410,0.0708 -0.2827,0.1390 -0.4251 0.2045c -0.1423,0.0618 -0.2853,0.1207 -0.4289 0.1766c -0.1436,0.0520 -0.2879,0.1009 -0.4328 0.1466c -0.1449,0.0416 -0.2904,0.0798 -0.4366 0.1145c -0.1462,0.0304 -0.2929,0.0573 -0.4403 0.0804c -0.1474,0.0187 -0.2954,0.0335 -0.4440 0.0444c -0.1486,0.0063 -0.2979,0.0086 -0.4477 0.0067c -0.1498,-0.0066 -0.3003,-0.0175 -0.4513 -0.0326c -0.1510,-0.0200 -0.3027,-0.0445 -0.4549 -0.0734c -0.1522,-0.0339 -0.3051,-0.0723 -0.4585 -0.1154c -0.1534,-0.0481 -0.3074,-0.1010 -0.4620 -0.1585c -0.1546,-0.0627 -0.3097,-0.1302 -0.4654 -0.2025c -0.1557,-0.0775 -0.3120,-0.1599 -0.4688 -0.2471c -0.1568,-0.0925 -0.3142,-0.1898 -0.4722 -0.2922c -0.1580,-0.1075 -0.3165,-0.2200 -0.4755 -0.3374c -0.1591,-0.1225 -0.3186,-0.2500 -0.4788 -0.3825c -0.1601,-0.1375 -0.3208,-0.2799 -0.4820 -0.4272c -0.1612,-0.1522 -0.3230,-0.3093 -0.4852 -0.4712c -0.1623,-0.1667 -0.3251,-0.3382 -0.4884 -0.5144c -0.1633,-0.1808 -0.3271,-0.3663 -0.4915 -0.5562c -0.1643,-0.1945 -0.3292,-0.3933 -0.4945 -0.5966c -0.1654,-0.2075 -0.3312,-0.4192 -0.4976 -0.6351c -0.1664,-0.2199 -0.3332,-0.4437 -0.5005 -0.6715c -0.1673,-0.2315 -0.3352,-0.4667 -0.5035 -0.7055c -0.1683,-0.2422 -0.3371,-0.4878 -0.5064 -0.7368c -0.1693,-0.2520 -0.3390,-0.5070 -0.5092 -0.7651c -0.3404,-0.5240 -0.6827,-1.0582 -1.0268 -1.6017c -0.3441,-0.5510 -0.6900,-1.1090 -1.0377 -1.6726c -0.3477,-0.5676 -0.6971,-1.1383 -1.0482 -1.7110c -0.3511,-0.5726 -0.7039,-1.1444 -1.0584 -1.7138c -0.3545,-0.5654 -0.7106,-1.1256 -1.0682 -1.6792c -0.1788,-0.2738 -0.3581,-0.5454 -0.5377 -0.8146c -0.1796,-0.2666 -0.3596,-0.5305 -0.5400 -0.7914c -0.1804,-0.2578 -0.3612,-0.5123 -0.5423 -0.7634c -0.1811,-0.2474 -0.3627,-0.4910 -0.5446 -0.7306c -0.1819,-0.2355 -0.3641,-0.4666 -0.5468 -0.6931c -0.1826,-0.2220 -0.3656,-0.4391 -0.5489 -0.6511c -0.1833,-0.2070 -0.3670,-0.4086 -0.5510 -0.6048c -0.1840,-0.1906 -0.3684,-0.3754 -0.5531 -0.5542c -0.1847,-0.1729 -0.3698,-0.3396 -0.5551 -0.4998c -0.1854,-0.1540 -0.3711,-0.3013 -0.5571 -0.4417c -0.1860,-0.1339 -0.3724,-0.2607 -0.5591 -0.3804c -0.1867,-0.1127 -0.3737,-0.2181 -0.5610 -0.3160c -0.1873,-0.0907 -0.3749,-0.1737 -0.5628 -0.2490c -0.1879,-0.0679 -0.3761,-0.1278 -0.5646 -0.1798c -0.1885,-0.0444 -0.3773,-0.0807 -0.5664 -0.1088c -0.1891,-0.0204 -0.3785,-0.0326 -0.5681 -0.0365Z"/></g><g stroke-linejoin="miter" stroke-opacity="1.0" fill-opacity="1.0" stroke="rgb(5,224,0)" stroke-width="5.0" fill="rgb(255,255,255)" stroke-linecap="butt" stroke-miterlimit="10.0"><path d="M 200.0000,134.9657 c -0.1897,0.0039 -0.3790,0.0161 -0.5681 0.0365c -0.1891,0.0281 -0.3779,0.0644 -0.5664 0.1088c -0.1885,0.0520 -0.3767,0.1119 -0.5646 0.1798c -0.1879,0.0753 -0.3755,0.1583 -0.5628 0.2490c -0.1873,0.0979 -0.3743,0.2032 -0.5610 0.3160c -0.1867,0.1197 -0.3730,0.2465 -0.5591 0.3804c -0.1860,0.1405 -0.3717,0.2878 -0.5571 0.4417c -0.1854,0.1602 -0.3704,0.3269 -0.5551 0.4998c -0.1847,0.1788 -0.3691,0.3636 -0.5531 0.5542c -0.1840,0.1961 -0.3677,0.3978 -0.5510 0.6048c -0.1833,0.2120 -0.3663,0.4291 -0.5489 0.6511c -0.1826,0.2266 -0.3649,0.4577 -0.5468 0.6931c -0.1819,0.2396 -0.3634,0.4832 -0.5446 0.7306c -0.1811,0.2510 -0.3619,0.5055 -0.5423 0.7634c -0.1804,0.2609 -0.3604,0.5248 -0.5400 0.7914c -0.1796,0.2692 -0.3589,0.5408 -0.5377 0.8146c -0.3577,0.5536 -0.7138,1.1138 -1.0682 1.6792c -0.3545,0.5695 -0.7073,1.1412 -1.0584 1.7138c -0.3511,0.5726 -0.7005,1.1434 -1.0482 1.7110c -0.3477,0.5637 -0.6936,1.1216 -1.0377 1.6726c -0.3441,0.5435 -0.6864,1.0778 -1.0268 1.6017c -0.1702,0.2580 -0.3399,0.5131 -0.5092 0.7651c -0.1693,0.2489 -0.3381,0.4946 -0.5064 0.7368c -0.1683,0.2388 -0.3361,0.4740 -0.5035 0.7055c -0.1673,0.2278 -0.3342,0.4516 -0.5005 0.6715c -0.1664,0.2159 -0.3322,0.4276 -0.4976 0.6351c -0.1654,0.2033 -0.3302,0.4021 -0.4945 0.5966c -0.1643,0.1900 -0.3282,0.3754 -0.4915 0.5562c -0.1633,0.1762 -0.3261,0.3476 -0.4884 0.5144c -0.1623,0.1619 -0.3240,0.3190 -0.4852 0.4712c -0.1612,0.1473 -0.3219,0.2897 -0.4820 0.4272c -0.1601,0.1324 -0.3197,0.2599 -0.4788 0.3825c -0.1591,0.1174 -0.3176,0.2299 -0.4755 0.3374c -0.1580,0.1023 -0.3153,0.1997 -0.4722 0.2922c -0.1568,0.0873 -0.3131,0.1696 -0.4688 0.2471c -0.1557,0.0723 -0.3108,0.1398 -0.4654 0.2025c -0.1546,0.0576 -0.3086,0.1104 -0.4620 0.1585c -0.1534,0.0431 -0.3062,0.0815 -0.4585 0.1154c -0.1522,0.0289 -0.3039,0.0533 -0.4549 0.0734c -0.1510,0.0151 -0.3015,0.0260 -0.4513 0.0326c -0.1498,0.0018 -0.2991,-0.0004 -0.4477 -0.0067c -0.1486,-0.0109 -0.2966,-0.0258 -0.4440 -0.0444c -0.1474,-0.0231 -0.2942,-0.0500 -0.4403 -0.0804c -0.1462,-0.0347 -0.2917,-0.0729 -0.4366 -0.1145c -0.1449,-0.0457 -0.2892,-0.0946 -0.4328 -0.1466c -0.1436,-0.0559 -0.2866,-0.1148 -0.4289 -0.1766c -0.1423,-0.0655 -0.2840,-0.1337 -0.4251 -0.2045c -0.1410,-0.0743 -0.2814,-0.1510 -0.4211 -0.2301c -0.1397,-0.0824 -0.2788,-0.1669 -0.4172 -0.2535c -0.1384,-0.0897 -0.2761,-0.1812 -0.4131 -0.2746c -0.1370,-0.0962 -0.2734,-0.1940 -0.4091 -0.2933c -0.1357,-0.1019 -0.2707,-0.2052 -0.4050 -0.3098c -0.1343,-0.1069 -0.2679,-0.2150 -0.4008 -0.3240c -0.2658,-0.2244 -0.5289,-0.4518 -0.7891 -0.6814c -0.2602,-0.2364 -0.5176,-0.4738 -0.7720 -0.7114c -0.2544,-0.2427 -0.5060,-0.4845 -0.7546 -0.7247c -0.4972,-0.4905 -0.9825,-0.9680 -1.4554 -1.4281c -0.4730,-0.4630 -0.9337,-0.9018 -1.3816 -1.3130c -0.4479,-0.4053 -0.8830,-0.7781 -1.3049 -1.1164c -0.2109,-0.1647 -0.4186,-0.3203 -0.6229 -0.4665c -0.2043,-0.1426 -0.4052,-0.2756 -0.6027 -0.3989c -0.1975,-0.1193 -0.3915,-0.2288 -0.5821 -0.3285c -0.1906,-0.0954 -0.3777,-0.1809 -0.5612 -0.2565c -0.1836,-0.0712 -0.3636,-0.1326 -0.5400 -0.1844c -0.1764,-0.0472 -0.3492,-0.0848 -0.5184 -0.1130c -0.1692,-0.0237 -0.3347,-0.0381 -0.4965 -0.0435c -0.1618,-0.0010 -0.3199,0.0069 -0.4742 0.0234c -0.1543,0.0207 -0.3049,0.0498 -0.4516 0.0870c -0.1467,0.0412 -0.2896,0.0902 -0.4287 0.1467c -0.1390,0.0603 -0.2742,0.1278 -0.4053 0.2023c -0.1312,0.0779 -0.2584,0.1624 -0.3817 0.2533c -0.1233,0.0939 -0.2425,0.1939 -0.3577 0.2997c -0.1152,0.1084 -0.2263,0.2223 -0.3334 0.3413c -0.2141,0.2451 -0.4116,0.5088 -0.5923 0.7888c -0.1807,0.2870 -0.3444,0.5879 -0.4908 0.9009c -0.1464,0.3176 -0.2754,0.6450 -0.3866 0.9808c -0.1112,0.3384 -0.2045,0.6835 -0.2795 1.0338c -0.1501,0.7044 -0.2269,1.4234 -0.2269 2.1517c -0.0000,0.7283 0.0769,1.4486 0.2269 2.1628c 0.0750,0.3589 0.1684,0.7180 0.2795 1.0780c 0.1112,0.3627 0.2402,0.7280 0.3866 1.0972c 0.1464,0.3738 0.3101,0.7535 0.4908 1.1407c 0.1807,0.3941 0.3783,0.7981 0.5923 1.2136c 0.1070,0.2113 0.2182,0.4261 0.3334 0.6444c 0.1152,0.2211 0.2344,0.4461 0.3577 0.6753c 0.1233,0.2322 0.2505,0.4690 0.3817 0.7106c 0.1312,0.2449 0.2663,0.4949 0.4053 0.7502c 0.1390,0.2589 0.2819,0.5235 0.4287 0.7939c 0.1467,0.2743 0.2973,0.5548 0.4516 0.8416c 0.1543,0.2909 0.3124,0.5885 0.4742 0.8927c 0.1618,0.3086 0.3273,0.6242 0.4965 0.9469c 0.1692,0.3271 0.3420,0.6615 0.5184 1.0033c 0.1764,0.3463 0.3564,0.7000 0.5400 1.0612c 0.1836,0.3657 0.3706,0.7389 0.5612 1.1196c 0.1906,0.3850 0.3846,0.7776 0.5821 1.1775c 0.1975,0.4039 0.3984,0.8152 0.6027 1.2335c 0.2043,0.4219 0.4119,0.8508 0.6229 1.2863c 0.4219,0.8799 0.8570,1.7842 1.3049 2.7105c 0.4479,0.9322 0.9086,1.8814 1.3816 2.8441c 0.4730,0.9597 0.9583,1.9259 1.4554 2.8936c 0.2486,0.4788 0.5001,0.9564 0.7546 1.4320c 0.2544,0.4705 0.5118,0.9379 0.7720 1.4014c 0.2602,0.4566 0.5233,0.9081 0.7891 1.3536c 0.1329,0.2196 0.2665,0.4374 0.4008 0.6533c 0.1343,0.2136 0.2693,0.4251 0.4050 0.6346c 0.1357,0.2068 0.2720,0.4114 0.4091 0.6135c 0.1370,0.1993 0.2748,0.3960 0.4131 0.5901c 0.1384,0.1910 0.2774,0.3791 0.4172 0.5643c 0.1397,0.1819 0.2801,0.3607 0.4211 0.5362c 0.1410,0.1720 0.2827,0.3407 0.4251 0.5058c 0.1423,0.1614 0.2853,0.3192 0.4289 0.4732c 0.1436,0.1501 0.2879,0.2962 0.4328 0.4383c 0.1449,0.1380 0.2904,0.2718 0.4366 0.4013c 0.1462,0.1252 0.2929,0.2460 0.4403 0.3623c 0.1474,0.1118 0.2954,0.2190 0.4440 0.3214c 0.1486,0.0978 0.2979,0.1907 0.4477 0.2786c 0.1498,0.0832 0.3003,0.1613 0.4513 0.2343c 0.1510,0.0681 0.3027,0.1309 0.4549 0.1884c 0.1522,0.0525 0.3051,0.0996 0.4585 0.1412c 0.1534,0.0365 0.3074,0.0675 0.4620 0.0929c 0.1546,0.0203 0.3097,0.0348 0.4654 0.0437c 0.1557,0.0037 0.3120,0.0017 0.4688 -0.0062c 0.1568,-0.0130 0.3142,-0.0318 0.4722 -0.0565c 0.1580,-0.0298 0.3165,-0.0655 0.4755 -0.1071c 0.1591,-0.0467 0.3186,-0.0992 0.4788 -0.1575c 0.1601,-0.0634 0.3208,-0.1326 0.4820 -0.2077c 0.1612,-0.0800 0.3230,-0.1657 0.4852 -0.2572c 0.1623,-0.0963 0.3251,-0.1983 0.4884 -0.3058c 0.1633,-0.1122 0.3271,-0.2300 0.4915 -0.3533c 0.1643,-0.1277 0.3292,-0.2608 0.4945 -0.3992c 0.1654,-0.1426 0.3312,-0.2905 0.4976 -0.4434c 0.1664,-0.1569 0.3332,-0.3187 0.5005 -0.4854c 0.1673,-0.1704 0.3352,-0.3455 0.5035 -0.5251c 0.1683,-0.1831 0.3371,-0.3705 0.5064 -0.5622c 0.1693,-0.1948 0.3390,-0.3935 0.5092 -0.5963c 0.3404,-0.4134 0.6827,-0.8410 1.0268 -1.2817c 0.3441,-0.4482 0.6900,-0.9074 1.0377 -1.3763c 0.3477,-0.4728 0.6971,-0.9528 1.0482 -1.4387c 0.3511,-0.4859 0.7039,-0.9750 1.0584 -1.4659c 0.3545,-0.4868 0.7106,-0.9726 1.0682 -1.4560c 0.1788,-0.2386 0.3581,-0.4761 0.5377 -0.7123c 0.1796,-0.2336 0.3596,-0.4654 0.5400 -0.6954c 0.1804,-0.2269 0.3612,-0.4515 0.5423 -0.6737c 0.1811,-0.2186 0.3627,-0.4344 0.5446 -0.6473c 0.1819,-0.2088 0.3641,-0.4143 0.5468 -0.6163c 0.1826,-0.1974 0.3656,-0.3911 0.5489 -0.5808c 0.1833,-0.1846 0.3670,-0.3650 0.5510 -0.5409c 0.1840,-0.1704 0.3684,-0.3361 0.5531 -0.4969c 0.1847,-0.1549 0.3698,-0.3047 0.5551 -0.4491c 0.1854,-0.1382 0.3711,-0.2708 0.5571 -0.3976c 0.1860,-0.1203 0.3724,-0.2346 0.5591 -0.3429c 0.1867,-0.1014 0.3737,-0.1965 0.5610 -0.2853c 0.1873,-0.0816 0.3749,-0.1566 0.5628 -0.2250c 0.1879,-0.0610 0.3761,-0.1153 0.5646 -0.1626c 0.1885,-0.0398 0.3773,-0.0727 0.5664 -0.0985c 0.1891,-0.0181 0.3785,-0.0292 0.5681 -0.0330c 0.1897,0.0039 0.3790,0.0149 0.5681 0.0330c 0.1891,0.0258 0.3779,0.0587 0.5664 0.0985c 0.1885,0.0474 0.3767,0.1016 0.5646 0.1626c 0.1879,0.0684 0.3755,0.1434 0.5628 0.2250c 0.1873,0.0888 0.3743,0.1839 0.5610 0.2853c 0.1867,0.1083 0.3730,0.2226 0.5591 0.3429c 0.1860,0.1269 0.3717,0.2595 0.5571 0.3976c 0.1854,0.1444 0.3704,0.2942 0.5551 0.4491c 0.1847,0.1608 0.3691,0.3265 0.5531 0.4969c 0.1840,0.1759 0.3677,0.3563 0.5510 0.5409c 0.1833,0.1897 0.3663,0.3833 0.5489 0.5808c 0.1826,0.2020 0.3649,0.4075 0.5468 0.6163c 0.1819,0.2129 0.3634,0.4287 0.5446 0.6473c 0.1811,0.2222 0.3619,0.4469 0.5423 0.6737c 0.1804,0.2300 0.3604,0.4618 0.5400 0.6954c 0.1796,0.2362 0.3589,0.4736 0.5377 0.7123c 0.3577,0.4833 0.7138,0.9691 1.0682 1.4560c 0.3545,0.4909 0.7073,0.9800 1.0584 1.4659c 0.3511,0.4859 0.7005,0.9659 1.0482 1.4387c 0.3477,0.4689 0.6936,0.9281 1.0377 1.3763c 0.3441,0.4408 0.6864,0.8684 1.0268 1.2817c 0.1702,0.2027 0.3399,0.4015 0.5092 0.5963c 0.1693,0.1917 0.3381,0.3791 0.5064 0.5622c 0.1683,0.1797 0.3361,0.3547 0.5035 0.5251c 0.1673,0.1667 0.3342,0.3285 0.5005 0.4854c 0.1664,0.1529 0.3322,0.3007 0.4976 0.4434c 0.1654,0.1384 0.3302,0.2715 0.4945 0.3992c 0.1643,0.1233 0.3282,0.2410 0.4915 0.3533c 0.1633,0.1076 0.3261,0.2095 0.4884 0.3058c 0.1623,0.0915 0.3240,0.1772 0.4852 0.2572c 0.1612,0.0750 0.3219,0.1443 0.4820 0.2077c 0.1601,0.0584 0.3197,0.1109 0.4788 0.1575c 0.1591,0.0415 0.3176,0.0772 0.4755 0.1071c 0.1580,0.0247 0.3153,0.0435 0.4722 0.0565c 0.1568,0.0078 0.3131,0.0099 0.4688 0.0062c 0.1557,-0.0089 0.3108,-0.0235 0.4654 -0.0437c 0.1546,-0.0254 0.3086,-0.0564 0.4620 -0.0929c 0.1534,-0.0416 0.3062,-0.0887 0.4585 -0.1412c 0.1522,-0.0575 0.3039,-0.1203 0.4549 -0.1884c 0.1510,-0.0730 0.3015,-0.1511 0.4513 -0.2343c 0.1498,-0.0879 0.2991,-0.1809 0.4477 -0.2786c 0.1486,-0.1024 0.2966,-0.2096 0.4440 -0.3214c 0.1474,-0.1163 0.2942,-0.2371 0.4403 -0.3623c 0.1462,-0.1295 0.2917,-0.2633 0.4366 -0.4013c 0.1449,-0.1421 0.2892,-0.2882 0.4328 -0.4383c 0.1436,-0.1540 0.2866,-0.3117 0.4289 -0.4732c 0.1423,-0.1651 0.2840,-0.3338 0.4251 -0.5058c 0.1410,-0.1755 0.2814,-0.3543 0.4211 -0.5362c 0.1397,-0.1852 0.2788,-0.3733 0.4172 -0.5643c 0.1384,-0.1941 0.2761,-0.3908 0.4131 -0.5901c 0.1370,-0.2021 0.2734,-0.4067 0.4091 -0.6135c 0.1357,-0.2094 0.2707,-0.4210 0.4050 -0.6346c 0.1343,-0.2160 0.2679,-0.4338 0.4008 -0.6533c 0.2658,-0.4455 0.5289,-0.8970 0.7891 -1.3536c 0.2602,-0.4635 0.5176,-0.9309 0.7720 -1.4014c 0.2544,-0.4756 0.5060,-0.9532 0.7546 -1.4320c 0.4972,-0.9677 0.9825,-1.9340 1.4554 -2.8936c 0.4730,-0.9626 0.9337,-1.9119 1.3816 -2.8441c 0.4479,-0.9263 0.8830,-1.8307 1.3049 -2.7105c 0.2109,-0.4355 0.4186,-0.8644 0.6229 -1.2863c 0.2043,-0.4183 0.4052,-0.8296 0.6027 -1.2335c 0.1975,-0.3999 0.3915,-0.7924 0.5821 -1.1775c 0.1906,-0.3807 0.3777,-0.7540 0.5612 -1.1196c 0.1836,-0.3612 0.3636,-0.7149 0.5400 -1.0612c 0.1764,-0.3417 0.3492,-0.6761 0.5184 -1.0033c 0.1692,-0.3227 0.3347,-0.6382 0.4965 -0.9469c 0.1618,-0.3043 0.3199,-0.6018 0.4742 -0.8927c 0.1543,-0.2868 0.3049,-0.5672 0.4516 -0.8416c 0.1467,-0.2704 0.2896,-0.5350 0.4287 -0.7939c 0.1390,-0.2553 0.2742,-0.5053 0.4053 -0.7502c 0.1312,-0.2415 0.2584,-0.4783 0.3817 -0.7106c 0.1233,-0.2292 0.2425,-0.4542 0.3577 -0.6753c 0.1152,-0.2184 0.2263,-0.4331 0.3334 -0.6444c 0.2141,-0.4156 0.4116,-0.8195 0.5923 -1.2136c 0.1807,-0.3872 0.3444,-0.7669 0.4908 -1.1407c 0.1464,-0.3692 0.2754,-0.7345 0.3866 -1.0972c 0.1112,-0.3600 0.2045,-0.7191 0.2795 -1.0780c 0.1501,-0.7142 0.2269,-1.4345 0.2269 -2.1628c 0.0000,-0.7283 -0.0769,-1.4473 -0.2269 -2.1517c -0.0750,-0.3504 -0.1684,-0.6954 -0.2795 -1.0338c -0.1112,-0.3358 -0.2402,-0.6632 -0.3866 -0.9808c -0.1464,-0.3130 -0.3101,-0.6139 -0.4908 -0.9009c -0.1807,-0.2801 -0.3783,-0.5437 -0.5923 -0.7888c -0.1070,-0.1190 -0.2182,-0.2329 -0.3334 -0.3413c -0.1152,-0.1057 -0.2344,-0.2057 -0.3577 -0.2997c -0.1233,-0.0909 -0.2505,-0.1754 -0.3817 -0.2533c -0.1312,-0.0745 -0.2663,-0.1420 -0.4053 -0.2023c -0.1390,-0.0566 -0.2819,-0.1056 -0.4287 -0.1467c -0.1467,-0.0372 -0.2973,-0.0663 -0.4516 -0.0870c -0.1543,-0.0165 -0.3124,-0.0244 -0.4742 -0.0234c -0.1618,0.0054 -0.3273,0.0198 -0.4965 0.0435c -0.1692,0.0282 -0.3420,0.0658 -0.5184 0.1130c -0.1764,0.0517 -0.3564,0.1131 -0.5400 0.1844c -0.1836,0.0757 -0.3706,0.1612 -0.5612 0.2565c -0.1906,0.0997 -0.3846,0.2092 -0.5821 0.3285c -0.1975,0.1233 -0.3984,0.2563 -0.6027 0.3989c -0.2043,0.1462 -0.4119,0.3017 -0.6229 0.4665c -0.4219,0.3383 -0.8570,0.7112 -1.3049 1.1164c -0.4479,0.4111 -0.9086,0.8499 -1.3816 1.3130c -0.4730,0.4601 -0.9583,0.9376 -1.4554 1.4281c -0.2486,0.2401 -0.5001,0.4819 -0.7546 0.7247c -0.2544,0.2376 -0.5118,0.4750 -0.7720 0.7114c -0.2602,0.2296 -0.5233,0.4570 -0.7891 0.6814c -0.1329,0.1090 -0.2665,0.2170 -0.4008 0.3240c -0.1343,0.1046 -0.2693,0.2079 -0.4050 0.3098c -0.1357,0.0993 -0.2720,0.1972 -0.4091 0.2933c -0.1370,0.0934 -0.2748,0.1849 -0.4131 0.2746c -0.1384,0.0866 -0.2774,0.1711 -0.4172 0.2535c -0.1397,0.0791 -0.2801,0.1558 -0.4211 0.2301c -0.1410,0.0708 -0.2827,0.1390 -0.4251 0.2045c -0.1423,0.0618 -0.2853,0.1207 -0.4289 0.1766c -0.1436,0.0520 -0.2879,0.1009 -0.4328 0.1466c -0.1449,0.0416 -0.2904,0.0798 -0.4366 0.1145c -0.1462,0.0304 -0.2929,0.0573 -0.4403 0.0804c -0.1474,0.0187 -0.2954,0.0335 -0.4440 0.0444c -0.1486,0.0063 -0.2979,0.0086 -0.4477 0.0067c -0.1498,-0.0066 -0.3003,-0.0175 -0.4513 -0.0326c -0.1510,-0.0200 -0.3027,-0.0445 -0.4549 -0.0734c -0.1522,-0.0339 -0.3051,-0.0723 -0.4585 -0.1154c -0.1534,-0.0481 -0.3074,-0.1010 -0.4620 -0.1585c -0.1546,-0.0627 -0.3097,-0.1302 -0.4654 -0.2025c -0.1557,-0.0775 -0.3120,-0.1599 -0.4688 -0.2471c -0.1568,-0.0925 -0.3142,-0.1898 -0.4722 -0.2922c -0.1580,-0.1075 -0.3165,-0.2200 -0.4755 -0.3374c -0.1591,-0.1225 -0.3186,-0.2500 -0.4788 -0.3825c -0.1601,-0.1375 -0.3208,-0.2799 -0.4820 -0.4272c -0.1612,-0.1522 -0.3230,-0.3093 -0.4852 -0.4712c -0.1623,-0.1667 -0.3251,-0.3382 -0.4884 -0.5144c -0.1633,-0.1808 -0.3271,-0.3663 -0.4915 -0.5562c -0.1643,-0.1945 -0.3292,-0.3933 -0.4945 -0.5966c -0.1654,-0.2075 -0.3312,-0.4192 -0.4976 -0.6351c -0.1664,-0.2199 -0.3332,-0.4437 -0.5005 -0.6715c -0.1673,-0.2315 -0.3352,-0.4667 -0.5035 -0.7055c -0.1683,-0.2422 -0.3371,-0.4878 -0.5064 -0.7368c -0.1693,-0.2520 -0.3390,-0.5070 -0.5092 -0.7651c -0.3404,-0.5240 -0.6827,-1.0582 -1.0268 -1.6017c -0.3441,-0.5510 -0.6900,-1.1090 -1.0377 -1.6726c -0.3477,-0.5676 -0.6971,-1.1383 -1.0482 -1.7110c -0.3511,-0.5726 -0.7039,-1.1444 -1.0584 -1.7138c -0.3545,-0.5654 -0.7106,-1.1256 -1.0682 -1.6792c -0.1788,-0.2738 -0.3581,-0.5454 -0.5377 -0.8146c -0.1796,-0.2666 -0.3596,-0.5305 -0.5400 -0.7914c -0.1804,-0.2578 -0.3612,-0.5123 -0.5423 -0.7634c -0.1811,-0.2474 -0.3627,-0.4910 -0.5446 -0.7306c -0.1819,-0.2355 -0.3641,-0.4666 -0.5468 -0.6931c -0.1826,-0.2220 -0.3656,-0.4391 -0.5489 -0.6511c -0.1833,-0.2070 -0.3670,-0.4086 -0.5510 -0.6048c -0.1840,-0.1906 -0.3684,-0.3754 -0.5531 -0.5542c -0.1847,-0.1729 -0.3698,-0.3396 -0.5551 -0.4998c -0.1854,-0.1540 -0.3711,-0.3013 -0.5571 -0.4417c -0.1860,-0.1339 -0.3724,-0.2607 -0.5591 -0.3804c -0.1867,-0.1127 -0.3737,-0.2181 -0.5610 -0.3160c -0.1873,-0.0907 -0.3749,-0.1737 -0.5628 -0.2490c -0.1879,-0.0679 -0.3761,-0.1278 -0.5646 -0.1798c -0.1885,-0.0444 -0.3773,-0.0807 -0.5664 -0.1088c -0.1891,-0.0204 -0.3785,-0.0326 -0.5681 -0.0365Z"/></g></svg>